<svg xmlns:svg="http://www.w3.org/2000/svg" xmlns="http://www.w3.org/2000/svg" width="1974.9" height="1091.7" viewBox="0 0 522.5 288.9" version="1.1"><style>.s0{fill:#000;font-family:sans-serif;font-size:10.6;letter-spacing:0;line-height:1.3;word-spacing:0;}.s1{fill:#000;font-family:sans-serif;font-size:12.3;letter-spacing:0;line-height:1.3;word-spacing:0;}.s2{font-size:12.3;stroke-width:0.3;}.s3{fill:#fff;stroke-width:1.3;stroke:#000;}.s4{fill:#000;stroke-width:0.8;stroke:#000;}.s5{fill:#fff;stroke-width:0.8;stroke:#000;}.s6{fill:#000;}.s7{fill:#000;font-family:sans-serif;font-size:14.1;letter-spacing:0;line-height:1.3;word-spacing:0;}.s8{font-size:14.1;stroke-width:0.3;}.s9{font-size:10.6;stroke-width:0.3;}</style><style>.s0{fill:#000;font-family:sans-serif;font-size:10.6;letter-spacing:0;line-height:1.3;word-spacing:0;}.s1{fill:#000;font-family:sans-serif;font-size:12.3;letter-spacing:0;line-height:1.3;word-spacing:0;}.s2{font-size:12.3;stroke-width:0.3;}.s3{fill:#fff;stroke-width:1.3;stroke:#000;}.s4{fill:#000;stroke-width:0.8;stroke:#000;}.s5{fill:#fff;stroke-width:0.8;stroke:#000;}.s6{fill:#000;}.s7{fill:#000;font-family:sans-serif;font-size:14.1;letter-spacing:0;line-height:1.3;word-spacing:0;}.s8{font-size:14.1;stroke-width:0.3;}.s9{font-size:10.6;stroke-width:0.3;}</style><text class="s0" y="172.9" x="15.9" xml:space="preserve"><tspan y="182.6" x="15.9" stroke-width="0.3"/></text><g aria-label="victimID" class="s1"><path d="M6.6 70.7 3.9 77.4H2.7L0 70.7H1.3l2.1 5.3 2.1-5.3zM9.3 69.5H8v-1.2h1.3zm-0.1 7.8H8.1v-6.7h1.1zM16.4 76.9q-0.6 0.3-1.1 0.4-0.5 0.2-1.1 0.2-0.7 0-1.3-0.2-0.6-0.2-1-0.6-0.4-0.4-0.7-1.1-0.2-0.7-0.2-1.5 0-1.6 0.9-2.6 0.9-0.9 2.4-0.9 0.6 0 1.1 0.2 0.6 0.2 1 0.4v1.3h-0.1q-0.5-0.4-1.1-0.6-0.5-0.2-1.1-0.2-1 0-1.5 0.6-0.6 0.6-0.6 1.9 0 1.2 0.5 1.9 0.5 0.6 1.5 0.6 0.3 0 0.7-0.1 0.4-0.1 0.6-0.2 0.2-0.1 0.5-0.3 0.2-0.1 0.3-0.2h0.1zM21.3 77.3q-0.3 0.1-0.7 0.1-0.4 0.1-0.7 0.1-1 0-1.6-0.6-0.5-0.6-0.5-1.8V71.6h-0.8v-0.9h0.8v-1.9h1.1v1.9h2.3v0.9h-2.3v3.1q0 0.5 0 0.8 0 0.3 0.2 0.6 0.1 0.2 0.4 0.4 0.2 0.1 0.7 0.1 0.3 0 0.6-0.1 0.3-0.1 0.4-0.1h0.1zM23.9 69.5H22.7V68.4H23.9ZM23.9 77.4H22.7V70.7H23.9ZM35.9 77.4H34.8v-3.8q0-0.4 0-0.8 0-0.4-0.2-0.6-0.1-0.3-0.4-0.4-0.3-0.1-0.7-0.1-0.5 0-0.9 0.2-0.5 0.2-0.9 0.6 0 0.1 0 0.3 0 0.2 0 0.4v4.3h-1.1v-3.8q0-0.4 0-0.8 0-0.4-0.2-0.6-0.1-0.3-0.4-0.4-0.3-0.1-0.7-0.1-0.5 0-0.9 0.2-0.5 0.2-0.9 0.6v5h-1.1v-6.7h1.1v0.7q0.5-0.4 1.1-0.7 0.5-0.2 1.1-0.2 0.7 0 1.2 0.3 0.5 0.3 0.7 0.8 0.7-0.6 1.2-0.8 0.6-0.3 1.2-0.3 1.1 0 1.6 0.7 0.5 0.7 0.5 1.9zM41.3 77.4H37.8v-0.9h1.2V69.3H37.8v-0.9h3.5v0.9h-1.2v7.1h1.2zM50.9 72.9q0 1.2-0.5 2.2-0.5 1-1.4 1.5-0.6 0.4-1.4 0.5-0.8 0.2-2 0.2h-2.3v-8.9h2.2q1.3 0 2.1 0.2 0.8 0.2 1.3 0.5 0.9 0.6 1.4 1.5 0.5 0.9 0.5 2.3zm-1.2 0q0-1.1-0.4-1.8-0.4-0.7-1.1-1.1-0.5-0.3-1.1-0.4-0.6-0.1-1.4-0.1h-1.1v6.9h1.1q0.9 0 1.5-0.1 0.6-0.1 1.2-0.5 0.7-0.4 1-1.1 0.3-0.7 0.3-1.7z" class="s2"/></g><g aria-label="firstName" class="s1"><path d="m30.3 48.6h-0.1q-0.2-0.1-0.5-0.1-0.3-0.1-0.5-0.1-0.7 0-1.1 0.3-0.3 0.3-0.3 1.2v0.2h2v0.9h-2v5.8H26.7v-5.8h-0.8v-0.9h0.8v-0.2q0-1.2 0.6-1.8 0.6-0.6 1.7-0.6 0.4 0 0.7 0 0.3 0 0.6 0.1zM32.2 49H30.9V47.9h1.3zm-0.1 7.8h-1.1v-6.7h1.1zM38.6 51.4h-0.1q-0.3-0.1-0.5-0.1-0.2 0-0.6 0-0.5 0-1 0.2-0.5 0.2-0.9 0.6v4.8h-1.1v-6.7h1.1v1q0.7-0.5 1.2-0.8 0.5-0.2 1.1-0.2 0.3 0 0.4 0 0.1 0 0.4 0.1zM44.4 54.9q0 0.9-0.8 1.5-0.8 0.6-2.1 0.6-0.7 0-1.4-0.2-0.6-0.2-1-0.4v-1.3h0.1q0.5 0.4 1.2 0.6 0.7 0.2 1.3 0.2 0.7 0 1.2-0.2 0.4-0.2 0.4-0.8 0-0.4-0.2-0.6-0.2-0.2-0.9-0.3-0.2-0.1-0.6-0.1-0.4-0.1-0.7-0.2-0.9-0.2-1.3-0.7-0.4-0.5-0.4-1.1 0-0.4 0.2-0.8 0.2-0.4 0.5-0.7 0.3-0.3 0.9-0.4 0.5-0.2 1.2-0.2 0.6 0 1.2 0.2 0.6 0.1 1 0.4v1.2h-0.1q-0.4-0.3-1.1-0.5-0.6-0.2-1.2-0.2-0.6 0-1 0.2-0.4 0.2-0.4 0.7 0 0.4 0.3 0.6 0.3 0.2 0.8 0.3 0.3 0.1 0.7 0.1 0.4 0.1 0.6 0.1 0.8 0.2 1.2 0.6 0.4 0.4 0.4 1.2zM49.6 56.8q-0.3 0.1-0.7 0.1-0.4 0.1-0.7 0.1-1 0-1.6-0.6-0.5-0.6-0.5-1.8v-3.6h-0.8v-0.9h0.8v-1.9h1.1v1.9h2.3v0.9H47.2v3.1q0 0.5 0 0.8 0 0.3 0.2 0.6 0.1 0.2 0.4 0.4 0.2 0.1 0.7 0.1 0.3 0 0.6-0.1 0.3-0.1 0.4-0.1h0.1zM57.8 56.9h-1.5l-4.2-8v8h-1.1v-8.9h1.8l3.9 7.3v-7.3h1.1zM65.3 56.9h-1.1v-0.7q-0.2 0.1-0.4 0.3-0.3 0.2-0.5 0.3-0.3 0.1-0.6 0.2-0.4 0.1-0.9 0.1-0.9 0-1.5-0.6-0.6-0.6-0.6-1.5 0-0.8 0.3-1.2 0.3-0.5 0.9-0.7 0.6-0.3 1.5-0.4 0.9-0.1 1.8-0.1v-0.2q0-0.4-0.1-0.6-0.1-0.3-0.4-0.4-0.2-0.1-0.6-0.2-0.3 0-0.7 0-0.4 0-1 0.1-0.5 0.1-1.1 0.3h-0.1v-1.1q0.3-0.1 1-0.2 0.6-0.1 1.2-0.1 0.7 0 1.2 0.1 0.5 0.1 0.9 0.4 0.4 0.3 0.6 0.7 0.2 0.4 0.2 1.1zM64.2 55.2V53.3q-0.5 0-1.2 0.1-0.7 0.1-1.1 0.2-0.5 0.1-0.8 0.4-0.3 0.3-0.3 0.8 0 0.6 0.3 0.9 0.3 0.3 1.1 0.3 0.6 0 1.1-0.2 0.5-0.2 0.9-0.6zM77.3 56.9h-1.1v-3.8q0-0.4 0-0.8 0-0.4-0.2-0.6-0.1-0.3-0.4-0.4-0.3-0.1-0.7-0.1-0.5 0-0.9 0.2-0.5 0.2-0.9 0.6 0 0.1 0 0.3 0 0.2 0 0.4v4.3H71.9v-3.8q0-0.4 0-0.8 0-0.4-0.2-0.6-0.1-0.3-0.4-0.4-0.3-0.1-0.7-0.1-0.5 0-0.9 0.2-0.5 0.2-0.9 0.6v5h-1.1v-6.7h1.1v0.7q0.5-0.4 1.1-0.7 0.5-0.2 1.1-0.2 0.7 0 1.2 0.3 0.5 0.3 0.7 0.8 0.7-0.6 1.2-0.8 0.6-0.3 1.2-0.3 1.1 0 1.6 0.7 0.5 0.7 0.5 1.9zM85.1 53.6h-4.9q0 0.6 0.2 1.1 0.2 0.5 0.5 0.8 0.3 0.3 0.7 0.4 0.4 0.1 0.9 0.1 0.7 0 1.4-0.3 0.7-0.3 1-0.5h0.1v1.2q-0.6 0.2-1.2 0.4-0.6 0.2-1.2 0.2-1.7 0-2.6-0.9-0.9-0.9-0.9-2.6 0-1.6 0.9-2.6 0.9-1 2.4-1 1.4 0 2.1 0.8 0.7 0.8 0.7 2.3zm-1.1-0.9q0-0.9-0.5-1.4-0.4-0.5-1.3-0.5-0.9 0-1.4 0.5-0.5 0.5-0.6 1.3z" class="s2"/></g><g aria-label="lastName" class="s1"><path d="m93.3 40.5h-1.1v-9.3h1.1zM100.8 40.5h-1.1v-0.7q-0.2 0.1-0.4 0.3-0.3 0.2-0.5 0.3-0.3 0.1-0.6 0.2-0.4 0.1-0.9 0.1-0.9 0-1.5-0.6-0.6-0.6-0.6-1.5 0-0.8 0.3-1.2 0.3-0.5 0.9-0.7 0.6-0.3 1.5-0.4 0.9-0.1 1.8-0.1v-0.2q0-0.4-0.1-0.6-0.1-0.3-0.4-0.4-0.2-0.1-0.6-0.2-0.3 0-0.7 0-0.4 0-1 0.1-0.5 0.1-1.1 0.3h-0.1v-1.1q0.3-0.1 1-0.2 0.6-0.1 1.2-0.1 0.7 0 1.2 0.1 0.5 0.1 0.9 0.4 0.4 0.3 0.6 0.7 0.2 0.4 0.2 1.1zm-1.1-1.7v-1.9q-0.5 0-1.2 0.1-0.7 0.1-1.1 0.2-0.5 0.1-0.8 0.4-0.3 0.3-0.3 0.8 0 0.6 0.3 0.9 0.3 0.3 1.1 0.3 0.6 0 1.1-0.2 0.5-0.2 0.9-0.6zM107.8 38.5q0 0.9-0.8 1.5-0.8 0.6-2.1 0.6-0.7 0-1.4-0.2-0.6-0.2-1-0.4v-1.3h0.1q0.5 0.4 1.2 0.6 0.7 0.2 1.3 0.2 0.7 0 1.2-0.2 0.4-0.2 0.4-0.8 0-0.4-0.2-0.6-0.2-0.2-0.9-0.3-0.2-0.1-0.6-0.1-0.4-0.1-0.7-0.2-0.9-0.2-1.3-0.7-0.4-0.5-0.4-1.1 0-0.4 0.2-0.8 0.2-0.4 0.5-0.7 0.3-0.3 0.9-0.4 0.5-0.2 1.2-0.2 0.6 0 1.2 0.2 0.6 0.1 1 0.4v1.2h-0.1q-0.4-0.3-1.1-0.5-0.6-0.2-1.2-0.2-0.6 0-1 0.2-0.4 0.2-0.4 0.7 0 0.4 0.3 0.6 0.3 0.2 0.8 0.3 0.3 0.1 0.7 0.1 0.4 0.1 0.6 0.1 0.8 0.2 1.2 0.6 0.4 0.4 0.4 1.2zM112.9 40.4q-0.3 0.1-0.7 0.1-0.4 0.1-0.7 0.1-1 0-1.6-0.6-0.5-0.6-0.5-1.8v-3.6h-0.8v-0.9h0.8v-1.9h1.1v1.9h2.3v0.9h-2.3v3.1q0 0.5 0 0.8 0 0.3 0.2 0.6 0.1 0.2 0.4 0.4 0.2 0.1 0.7 0.1 0.3 0 0.6-0.1 0.3-0.1 0.4-0.1h0.1zM121.1 40.5h-1.5l-4.2-8v8h-1.1v-8.9h1.8l3.9 7.3v-7.3h1.1zM128.7 40.5h-1.1v-0.7q-0.2 0.1-0.4 0.3-0.3 0.2-0.5 0.3-0.3 0.1-0.6 0.2-0.4 0.1-0.9 0.1-0.9 0-1.5-0.6-0.6-0.6-0.6-1.5 0-0.8 0.3-1.2 0.3-0.5 0.9-0.7 0.6-0.3 1.5-0.4 0.9-0.1 1.8-0.1v-0.2q0-0.4-0.1-0.6-0.1-0.3-0.4-0.4-0.2-0.1-0.6-0.2-0.3 0-0.7 0-0.4 0-1 0.1-0.5 0.1-1.1 0.3h-0.1v-1.1q0.3-0.1 1-0.2 0.6-0.1 1.2-0.1 0.7 0 1.2 0.1 0.5 0.1 0.9 0.4 0.4 0.3 0.6 0.7 0.2 0.4 0.2 1.1zm-1.1-1.7v-1.9q-0.5 0-1.2 0.1-0.7 0.1-1.1 0.2-0.5 0.1-0.8 0.4-0.3 0.3-0.3 0.8 0 0.6 0.3 0.9 0.3 0.3 1.1 0.3 0.6 0 1.1-0.2 0.5-0.2 0.9-0.6zM140.6 40.5h-1.1v-3.8q0-0.4 0-0.8 0-0.4-0.2-0.6-0.1-0.3-0.4-0.4-0.3-0.1-0.7-0.1-0.5 0-0.9 0.2-0.5 0.2-0.9 0.6 0 0.1 0 0.3 0 0.2 0 0.4v4.3h-1.1v-3.8q0-0.4 0-0.8 0-0.4-0.2-0.6-0.1-0.3-0.4-0.4-0.3-0.1-0.7-0.1-0.5 0-0.9 0.2-0.5 0.2-0.9 0.6v5h-1.1v-6.7h1.1v0.7q0.5-0.4 1.1-0.7 0.5-0.2 1.1-0.2 0.7 0 1.2 0.3 0.5 0.3 0.7 0.8 0.7-0.6 1.2-0.8 0.6-0.3 1.2-0.3 1.1 0 1.6 0.7 0.5 0.7 0.5 1.9zM148.4 37.2h-4.9q0 0.6 0.2 1.1 0.2 0.5 0.5 0.8 0.3 0.3 0.7 0.4 0.4 0.1 0.9 0.1 0.7 0 1.4-0.3 0.7-0.3 1-0.5h0.1v1.2q-0.6 0.2-1.2 0.4-0.6 0.2-1.2 0.2-1.7 0-2.6-0.9-0.9-0.9-0.9-2.6 0-1.6 0.9-2.6 0.9-1 2.4-1 1.4 0 2.1 0.8 0.7 0.8 0.7 2.3zm-1.1-0.9q0-0.9-0.5-1.4-0.4-0.5-1.3-0.5-0.9 0-1.4 0.5-0.5 0.5-0.6 1.3z" class="s2"/></g><g aria-label="birthday" class="s1"><path d="m160.8 54.7q0 0.8-0.2 1.5-0.2 0.7-0.6 1.1-0.4 0.5-0.9 0.7-0.5 0.2-1.1 0.2-0.6 0-1-0.1-0.4-0.1-0.8-0.4l-0.1 0.3h-1.1v-9.3h1.1v3.3q0.5-0.4 1-0.6 0.5-0.3 1.2-0.3 1.2 0 1.9 0.9 0.7 0.9 0.7 2.6zm-1.2 0q0-1.2-0.4-1.8-0.4-0.6-1.3-0.6-0.5 0-1 0.2-0.5 0.2-0.9 0.5v3.8q0.5 0.2 0.8 0.3 0.3 0.1 0.8 0.1 0.9 0 1.5-0.6 0.5-0.6 0.5-1.9zM163.8 50.2h-1.3v-1.2h1.3zm-0.1 7.8h-1.1v-6.7h1.1zM170.1 52.6h-0.1q-0.3-0.1-0.5-0.1-0.2 0-0.6 0-0.5 0-1 0.2-0.5 0.2-0.9 0.6v4.8h-1.1v-6.7h1.1v1q0.7-0.5 1.2-0.8 0.5-0.2 1.1-0.2 0.3 0 0.4 0 0.1 0 0.4 0.1zM174.7 58q-0.3 0.1-0.7 0.1-0.4 0.1-0.7 0.1-1 0-1.6-0.6-0.5-0.6-0.5-1.8v-3.6h-0.8v-0.9h0.8v-1.9h1.1v1.9h2.3v0.9h-2.3v3.1q0 0.5 0 0.8 0 0.3 0.2 0.6 0.1 0.2 0.4 0.4 0.2 0.1 0.7 0.1 0.3 0 0.6-0.1 0.3-0.1 0.4-0.1h0.1zM181.7 58.1h-1.1v-3.8q0-0.5-0.1-0.9-0.1-0.4-0.2-0.6-0.2-0.3-0.4-0.4-0.3-0.1-0.7-0.1-0.5 0-1 0.2-0.5 0.2-1 0.6v5h-1.1v-9.3h1.1v3.4q0.5-0.4 1.1-0.7 0.6-0.2 1.2-0.2 1.1 0 1.7 0.7 0.6 0.7 0.6 1.9zM189.3 58.1h-1.1v-0.7q-0.5 0.4-1 0.7-0.5 0.2-1.1 0.2-1.2 0-1.9-0.9-0.7-0.9-0.7-2.6 0-0.9 0.2-1.5 0.2-0.7 0.7-1.1 0.4-0.5 0.9-0.7 0.5-0.2 1.1-0.2 0.5 0 0.9 0.1 0.4 0.1 0.9 0.3v-2.9h1.1zm-1.1-1.7v-3.8q-0.5-0.2-0.8-0.3-0.4-0.1-0.8-0.1-0.9 0-1.5 0.7-0.5 0.7-0.5 1.9 0 1.2 0.4 1.8 0.4 0.6 1.3 0.6 0.5 0 1-0.2 0.5-0.2 0.9-0.6zM196.7 58.1h-1.1v-0.7q-0.2 0.1-0.4 0.3-0.3 0.2-0.5 0.3-0.3 0.1-0.6 0.2-0.4 0.1-0.9 0.1-0.9 0-1.5-0.6-0.6-0.6-0.6-1.5 0-0.8 0.3-1.2 0.3-0.5 0.9-0.7 0.6-0.3 1.5-0.4 0.9-0.1 1.8-0.1v-0.2q0-0.4-0.1-0.6-0.1-0.3-0.4-0.4-0.2-0.1-0.6-0.2-0.3 0-0.7 0-0.4 0-1 0.1-0.5 0.1-1.1 0.3h-0.1v-1.1q0.3-0.1 1-0.2 0.6-0.1 1.2-0.1 0.7 0 1.2 0.1 0.5 0.1 0.9 0.4 0.4 0.3 0.6 0.7 0.2 0.4 0.2 1.1zm-1.1-1.7v-1.9q-0.5 0-1.2 0.1-0.7 0.1-1.1 0.2-0.5 0.1-0.8 0.4-0.3 0.3-0.3 0.8 0 0.6 0.3 0.9 0.3 0.3 1.1 0.3 0.6 0 1.1-0.2 0.5-0.2 0.9-0.6zM204.6 51.4l-3.9 9.2h-1.2l1.2-2.8-2.7-6.4h1.2l2.1 5 2.1-5z" class="s2"/></g><g aria-label="email" class="s1"><path d="m196.2 76.7h-4.9q0 0.6 0.2 1.1 0.2 0.5 0.5 0.8 0.3 0.3 0.7 0.4 0.4 0.1 0.9 0.1 0.7 0 1.4-0.3 0.7-0.3 1-0.5h0.1v1.2q-0.6 0.2-1.2 0.4-0.6 0.2-1.2 0.2-1.7 0-2.6-0.9-0.9-0.9-0.9-2.6 0-1.6 0.9-2.6 0.9-1 2.4-1 1.4 0 2.1 0.8 0.7 0.8 0.7 2.3zm-1.1-0.9q0-0.9-0.5-1.4-0.4-0.5-1.3-0.5-0.9 0-1.4 0.5-0.5 0.5-0.6 1.3zM207.7 80h-1.1v-3.8q0-0.4 0-0.8 0-0.4-0.2-0.6-0.1-0.3-0.4-0.4-0.3-0.1-0.7-0.1-0.5 0-0.9 0.2-0.5 0.2-0.9 0.6 0 0.1 0 0.3 0 0.2 0 0.4v4.3h-1.1v-3.8q0-0.4 0-0.8 0-0.4-0.2-0.6-0.1-0.3-0.4-0.4-0.3-0.1-0.7-0.1-0.5 0-0.9 0.2-0.5 0.2-0.9 0.6v5h-1.1v-6.7h1.1v0.7q0.5-0.4 1.1-0.7 0.5-0.2 1.1-0.2 0.7 0 1.2 0.3 0.5 0.3 0.7 0.8 0.7-0.6 1.2-0.8 0.6-0.3 1.2-0.3 1.1 0 1.6 0.7 0.5 0.7 0.5 1.9zM215.1 80h-1.1v-0.7q-0.2 0.1-0.4 0.3-0.3 0.2-0.5 0.3-0.3 0.1-0.6 0.2-0.4 0.1-0.9 0.1-0.9 0-1.5-0.6-0.6-0.6-0.6-1.5 0-0.8 0.3-1.2 0.3-0.5 0.9-0.7 0.6-0.3 1.5-0.4 0.9-0.1 1.8-0.1v-0.2q0-0.4-0.1-0.6-0.1-0.3-0.4-0.4-0.2-0.1-0.6-0.2-0.3 0-0.7 0-0.4 0-1 0.1-0.5 0.1-1.1 0.3h-0.1v-1.1q0.3-0.1 1-0.2 0.6-0.1 1.2-0.1 0.7 0 1.2 0.1 0.5 0.1 0.9 0.4 0.4 0.3 0.6 0.7 0.2 0.4 0.2 1.1zm-1.1-1.7v-1.9q-0.5 0-1.2 0.1-0.7 0.1-1.1 0.2-0.5 0.1-0.8 0.4-0.3 0.3-0.3 0.8 0 0.6 0.3 0.9 0.3 0.3 1.1 0.3 0.6 0 1.1-0.2 0.5-0.2 0.9-0.6zM218.5 72.1h-1.3v-1.2h1.3zm-0.1 7.8h-1.1v-6.7h1.1zM221.8 80h-1.1v-9.3h1.1z" class="s2"/></g><g aria-label="name" class="s1"><path d="m244.1 288.7h-1.1v-3.8q0-0.5-0.1-0.9-0.1-0.4-0.2-0.6-0.2-0.3-0.4-0.4-0.3-0.1-0.7-0.1-0.5 0-1 0.2-0.5 0.2-1 0.6v5h-1.1v-6.7h1.1v0.7q0.5-0.4 1.1-0.7 0.6-0.2 1.2-0.2 1.1 0 1.7 0.7 0.6 0.7 0.6 1.9zM251.5 288.7h-1.1v-0.7q-0.2 0.1-0.4 0.3-0.3 0.2-0.5 0.3-0.3 0.1-0.6 0.2-0.4 0.1-0.9 0.1-0.9 0-1.5-0.6-0.6-0.6-0.6-1.5 0-0.8 0.3-1.2 0.3-0.5 0.9-0.7 0.6-0.3 1.5-0.4 0.9-0.1 1.8-0.1v-0.2q0-0.4-0.1-0.6-0.1-0.3-0.4-0.4-0.2-0.1-0.6-0.2-0.3 0-0.7 0-0.4 0-1 0.1-0.5 0.1-1.1 0.3h-0.1v-1.1q0.3-0.1 1-0.2 0.6-0.1 1.2-0.1 0.7 0 1.2 0.1 0.5 0.1 0.9 0.4 0.4 0.3 0.6 0.7 0.2 0.4 0.2 1.1zm-1.1-1.7v-1.9q-0.5 0-1.2 0.1-0.7 0.1-1.1 0.2-0.5 0.1-0.8 0.4-0.3 0.3-0.3 0.8 0 0.6 0.3 0.9 0.3 0.3 1.1 0.3 0.6 0 1.1-0.2 0.5-0.2 0.9-0.6zM263.5 288.7h-1.1v-3.8q0-0.4 0-0.8 0-0.4-0.2-0.6-0.1-0.3-0.4-0.4-0.3-0.1-0.7-0.1-0.5 0-0.9 0.2-0.5 0.2-0.9 0.6 0 0.1 0 0.3 0 0.2 0 0.4v4.3h-1.1v-3.8q0-0.4 0-0.8 0-0.4-0.2-0.6-0.1-0.3-0.4-0.4-0.3-0.1-0.7-0.1-0.5 0-0.9 0.2-0.5 0.2-0.9 0.6v5h-1.1v-6.7h1.1v0.7q0.5-0.4 1.1-0.7 0.5-0.2 1.1-0.2 0.7 0 1.2 0.3 0.5 0.3 0.7 0.8 0.7-0.6 1.2-0.8 0.6-0.3 1.2-0.3 1.1 0 1.6 0.7 0.5 0.7 0.5 1.9zM271.2 285.4h-4.9q0 0.6 0.2 1.1 0.2 0.5 0.5 0.8 0.3 0.3 0.7 0.4 0.4 0.1 0.9 0.1 0.7 0 1.4-0.3 0.7-0.3 1-0.5h0.1v1.2q-0.6 0.2-1.2 0.4-0.6 0.2-1.2 0.2-1.7 0-2.6-0.9-0.9-0.9-0.9-2.6 0-1.6 0.9-2.6 0.9-1 2.4-1 1.4 0 2.1 0.8 0.7 0.8 0.7 2.3zm-1.1-0.9q0-0.9-0.5-1.4-0.4-0.5-1.3-0.5-0.9 0-1.4 0.5-0.5 0.5-0.6 1.3z" class="s2"/></g><g aria-label="url" class="s1"><path d="m301.2 288.7h-1.1v-0.7q-0.6 0.5-1.1 0.7-0.5 0.2-1.2 0.2-1.1 0-1.6-0.6-0.6-0.6-0.6-1.9v-4.4h1.1v3.8q0 0.5 0 0.9 0 0.4 0.2 0.6 0.2 0.3 0.4 0.4 0.3 0.1 0.8 0.1 0.4 0 1-0.2 0.5-0.2 1-0.6v-5h1.1zM307.7 283.2h-0.1q-0.3-0.1-0.5-0.1-0.2 0-0.6 0-0.5 0-1 0.2-0.5 0.2-0.9 0.6v4.8h-1.1v-6.7h1.1v1q0.7-0.5 1.2-0.8 0.5-0.2 1.1-0.2 0.3 0 0.4 0 0.1 0 0.4 0.1zM309.9 288.7h-1.1v-9.3h1.1z" class="s2"/></g><g aria-label="name" class="s1"><path d="m316.9 9.4h-1.1V5.5q0-0.5-0.1-0.9-0.1-0.4-0.2-0.6-0.2-0.3-0.4-0.4-0.3-0.1-0.7-0.1-0.5 0-1 0.2-0.5 0.2-1 0.6v5h-1.1v-6.7h1.1v0.7q0.5-0.4 1.1-0.7 0.6-0.2 1.2-0.2 1.1 0 1.7 0.7 0.6 0.7 0.6 1.9zM324.3 9.4h-1.1V8.6q-0.2 0.1-0.4 0.3-0.3 0.2-0.5 0.3-0.3 0.1-0.6 0.2-0.4 0.1-0.9 0.1-0.9 0-1.5-0.6-0.6-0.6-0.6-1.5 0-0.8 0.3-1.2 0.3-0.5 0.9-0.7 0.6-0.3 1.5-0.4 0.9-0.1 1.8-0.1V4.8q0-0.4-0.1-0.6-0.1-0.3-0.4-0.4-0.2-0.1-0.6-0.2-0.3 0-0.7 0-0.4 0-1 0.1-0.5 0.1-1.1 0.3h-0.1V2.8q0.3-0.1 1-0.2 0.6-0.1 1.2-0.1 0.7 0 1.2 0.1 0.5 0.1 0.9 0.4 0.4 0.3 0.6 0.7 0.2 0.4 0.2 1.1zm-1.1-1.7V5.8q-0.5 0-1.2 0.1-0.7 0.1-1.1 0.2-0.5 0.1-0.8 0.4-0.3 0.3-0.3 0.8 0 0.6 0.3 0.9 0.3 0.3 1.1 0.3 0.6 0 1.1-0.2 0.5-0.2 0.9-0.6zM336.3 9.4h-1.1V5.5q0-0.4 0-0.8 0-0.4-0.2-0.6-0.1-0.3-0.4-0.4-0.3-0.1-0.7-0.1-0.5 0-0.9 0.2-0.5 0.2-0.9 0.6 0 0.1 0 0.3 0 0.2 0 0.4v4.3h-1.1V5.5q0-0.4 0-0.8 0-0.4-0.2-0.6-0.1-0.3-0.4-0.4-0.3-0.1-0.7-0.1-0.5 0-0.9 0.2-0.5 0.2-0.9 0.6v5h-1.1v-6.7h1.1v0.7q0.5-0.4 1.1-0.7 0.5-0.2 1.1-0.2 0.7 0 1.2 0.3 0.5 0.3 0.7 0.8 0.7-0.6 1.2-0.8 0.6-0.3 1.2-0.3 1.1 0 1.6 0.7 0.5 0.7 0.5 1.9zM344 6.1h-4.9q0 0.6 0.2 1.1 0.2 0.5 0.5 0.8 0.3 0.3 0.7 0.4 0.4 0.1 0.9 0.1 0.7 0 1.4-0.3 0.7-0.3 1-0.5h0.1v1.2q-0.6 0.2-1.2 0.4-0.6 0.2-1.2 0.2-1.7 0-2.6-0.9-0.9-0.9-0.9-2.6 0-1.6 0.9-2.6 0.9-1 2.4-1 1.4 0 2.1 0.8 0.7 0.8 0.7 2.3zm-1.1-0.9q0-0.9-0.5-1.4-0.4-0.5-1.3-0.5-0.9 0-1.4 0.5-0.5 0.5-0.6 1.3z" class="s2"/></g><g aria-label="url" class="s1"><path d="m383.4 9.4h-1.1V8.6q-0.6 0.5-1.1 0.7-0.5 0.2-1.2 0.2-1.1 0-1.6-0.6-0.6-0.6-0.6-1.9V2.7h1.1v3.8q0 0.5 0 0.9 0 0.4 0.2 0.6 0.2 0.3 0.4 0.4 0.3 0.1 0.8 0.1 0.4 0 1-0.2 0.5-0.2 1-0.6V2.7h1.1zM389.9 3.9h-0.1q-0.3-0.1-0.5-0.1-0.2 0-0.6 0-0.5 0-1 0.2-0.5 0.2-0.9 0.6v4.8h-1.1v-6.7h1.1v1q0.7-0.5 1.2-0.8 0.5-0.2 1.1-0.2 0.3 0 0.4 0 0.1 0 0.4 0.1zM392.1 9.4h-1.1V0h1.1z" class="s2"/></g><g aria-label="messageID" class="s1"><path d="m464.7 54.8h-1.1v-3.8q0-0.4 0-0.8 0-0.4-0.2-0.6-0.1-0.3-0.4-0.4-0.3-0.1-0.7-0.1-0.5 0-0.9 0.2-0.5 0.2-0.9 0.6 0 0.1 0 0.3 0 0.2 0 0.4v4.3h-1.1v-3.8q0-0.4 0-0.8 0-0.4-0.2-0.6-0.1-0.3-0.4-0.4-0.3-0.1-0.7-0.1-0.5 0-0.9 0.2-0.5 0.2-0.9 0.6v5h-1.1v-6.7h1.1v0.7q0.5-0.4 1.1-0.7 0.5-0.2 1.1-0.2 0.7 0 1.2 0.3 0.5 0.3 0.7 0.8 0.7-0.6 1.2-0.8 0.6-0.3 1.2-0.3 1.1 0 1.6 0.7 0.5 0.7 0.5 1.9zM472.5 51.5h-4.9q0 0.6 0.2 1.1 0.2 0.5 0.5 0.8 0.3 0.3 0.7 0.4 0.4 0.1 0.9 0.1 0.7 0 1.4-0.3 0.7-0.3 1-0.5h0.1v1.2q-0.6 0.2-1.2 0.4-0.6 0.2-1.2 0.2-1.7 0-2.6-0.9-0.9-0.9-0.9-2.6 0-1.6 0.9-2.6 0.9-1 2.4-1 1.4 0 2.1 0.8 0.7 0.8 0.7 2.3zm-1.1-0.9q0-0.9-0.5-1.4-0.4-0.5-1.3-0.5-0.9 0-1.4 0.5-0.5 0.5-0.6 1.3zM479 52.8q0 0.9-0.8 1.5-0.8 0.6-2.1 0.6-0.7 0-1.4-0.2-0.6-0.2-1-0.4v-1.3h0.1q0.5 0.4 1.2 0.6 0.7 0.2 1.3 0.2 0.7 0 1.2-0.2 0.4-0.2 0.4-0.8 0-0.4-0.2-0.6-0.2-0.2-0.9-0.3-0.2-0.1-0.6-0.1-0.4-0.1-0.7-0.2-0.9-0.2-1.3-0.7-0.4-0.5-0.4-1.1 0-0.4 0.2-0.8 0.2-0.4 0.5-0.7 0.3-0.3 0.9-0.4 0.5-0.2 1.2-0.2 0.6 0 1.2 0.2 0.6 0.1 1 0.4v1.2h-0.1q-0.4-0.3-1.1-0.5-0.6-0.2-1.2-0.2-0.6 0-1 0.2-0.4 0.2-0.4 0.7 0 0.4 0.3 0.6 0.3 0.2 0.8 0.3 0.3 0.1 0.7 0.1 0.4 0.1 0.6 0.1 0.8 0.2 1.2 0.6 0.4 0.4 0.4 1.2zM485.4 52.8q0 0.9-0.8 1.5-0.8 0.6-2.1 0.6-0.7 0-1.4-0.2-0.6-0.2-1-0.4v-1.3h0.1q0.5 0.4 1.2 0.6 0.7 0.2 1.3 0.2 0.7 0 1.2-0.2 0.4-0.2 0.4-0.8 0-0.4-0.2-0.6-0.2-0.2-0.9-0.3-0.2-0.1-0.6-0.1-0.4-0.1-0.7-0.2-0.9-0.2-1.3-0.7-0.4-0.5-0.4-1.1 0-0.4 0.2-0.8 0.2-0.4 0.5-0.7 0.3-0.3 0.9-0.4 0.5-0.2 1.2-0.2 0.6 0 1.2 0.2 0.6 0.1 1 0.4v1.2h-0.1q-0.4-0.3-1.1-0.5-0.6-0.2-1.2-0.2-0.6 0-1 0.2-0.4 0.2-0.4 0.7 0 0.4 0.3 0.6 0.3 0.2 0.8 0.3 0.3 0.1 0.7 0.1 0.4 0.1 0.6 0.1 0.8 0.2 1.2 0.6 0.4 0.4 0.4 1.2zM492.2 54.8h-1.1V54q-0.2 0.1-0.4 0.3-0.3 0.2-0.5 0.3-0.3 0.1-0.6 0.2-0.4 0.1-0.9 0.1-0.9 0-1.5-0.6-0.6-0.6-0.6-1.5 0-0.8 0.3-1.2 0.3-0.5 0.9-0.7 0.6-0.3 1.5-0.4 0.9-0.1 1.8-0.1v-0.2q0-0.4-0.1-0.6-0.1-0.3-0.4-0.4-0.2-0.1-0.6-0.2-0.3 0-0.7 0-0.4 0-1 0.1-0.5 0.1-1.1 0.3h-0.1v-1.1q0.3-0.1 1-0.2 0.6-0.1 1.2-0.1 0.7 0 1.2 0.1 0.5 0.1 0.9 0.4 0.4 0.3 0.6 0.7 0.2 0.4 0.2 1.1zm-1.1-1.7v-1.9q-0.5 0-1.2 0.1-0.7 0.1-1.1 0.2-0.5 0.1-0.8 0.4-0.3 0.3-0.3 0.8 0 0.6 0.3 0.9 0.3 0.3 1.1 0.3 0.6 0 1.1-0.2 0.5-0.2 0.9-0.6zM499.8 54q0 1.7-0.8 2.5-0.8 0.8-2.4 0.8-0.5 0-1-0.1-0.5-0.1-1-0.2V55.9h0.1q0.3 0.1 0.9 0.3 0.6 0.2 1.2 0.2 0.6 0 1-0.1 0.4-0.1 0.6-0.4 0.2-0.2 0.3-0.6 0.1-0.3 0.1-0.7v-0.6q-0.5 0.4-1 0.6-0.5 0.2-1.2 0.2-1.2 0-1.9-0.9-0.7-0.9-0.7-2.5 0-0.9 0.2-1.5 0.2-0.6 0.7-1.1 0.4-0.4 0.9-0.7 0.6-0.2 1.1-0.2 0.6 0 1 0.1 0.4 0.1 0.8 0.4l0.1-0.3h1.1zm-1.1-1.1V49.3q-0.5-0.2-0.8-0.3-0.4-0.1-0.8-0.1-0.9 0-1.5 0.6-0.5 0.6-0.5 1.8 0 1.1 0.4 1.7 0.4 0.6 1.3 0.6 0.5 0 1-0.2 0.5-0.2 0.9-0.5zM507.7 51.5h-4.9q0 0.6 0.2 1.1 0.2 0.5 0.5 0.8 0.3 0.3 0.7 0.4 0.4 0.1 0.9 0.1 0.7 0 1.4-0.3 0.7-0.3 1-0.5h0.1v1.2q-0.6 0.2-1.2 0.4-0.6 0.2-1.2 0.2-1.7 0-2.6-0.9-0.9-0.9-0.9-2.6 0-1.6 0.9-2.6 0.9-1 2.4-1 1.4 0 2.1 0.8 0.7 0.8 0.7 2.3zm-1.1-0.9q0-0.9-0.5-1.4-0.4-0.5-1.3-0.5-0.9 0-1.4 0.5-0.5 0.5-0.6 1.3zM512.6 54.8h-3.5v-0.9h1.2v-7.1h-1.2v-0.9h3.5v0.9h-1.2v7.1h1.2zM522.2 50.3q0 1.2-0.5 2.2-0.5 1-1.4 1.5-0.6 0.4-1.4 0.5-0.8 0.2-2 0.2h-2.3v-8.9h2.2q1.3 0 2.1 0.2 0.8 0.2 1.3 0.5 0.9 0.6 1.4 1.5 0.5 0.9 0.5 2.3zm-1.2 0q0-1.1-0.4-1.8-0.4-0.7-1.1-1.1-0.5-0.3-1.1-0.4-0.6-0.1-1.4-0.1H515.9v6.9h1.1q0.9 0 1.5-0.1 0.6-0.1 1.2-0.5 0.7-0.4 1-1.1 0.3-0.7 0.3-1.7z" class="s2"/></g><g aria-label="file" class="s1"><path d="m430.6 38.2h-0.1q-0.2-0.1-0.5-0.1-0.3-0.1-0.5-0.1-0.7 0-1.1 0.3-0.3 0.3-0.3 1.2v0.2h2v0.9h-2v5.8h-1.1v-5.8h-0.8v-0.9h0.8V39.5q0-1.2 0.6-1.8 0.6-0.6 1.7-0.6 0.4 0 0.7 0 0.3 0 0.6 0.1zM432.5 38.6h-1.3v-1.2h1.3zm-0.1 7.8h-1.1v-6.7h1.1zM435.8 46.5h-1.1v-9.3h1.1zM443.7 43.2h-4.9q0 0.6 0.2 1.1 0.2 0.5 0.5 0.8 0.3 0.3 0.7 0.4 0.4 0.1 0.9 0.1 0.7 0 1.4-0.3 0.7-0.3 1-0.5h0.1v1.2q-0.6 0.2-1.2 0.4-0.6 0.2-1.2 0.2-1.7 0-2.6-0.9-0.9-0.9-0.9-2.6 0-1.6 0.9-2.6 0.9-1 2.4-1 1.4 0 2.1 0.8 0.7 0.8 0.7 2.3zm-1.1-0.9q0-0.9-0.5-1.4-0.4-0.5-1.3-0.5-0.9 0-1.4 0.5-0.5 0.5-0.6 1.3z" class="s2"/></g><rect class="s3" y="117.6" x="80.1" height="51.4" width="77.9"/><path class="s3" d="m276.4 104.1 65.5 40.6-65.5 40.6-65.5-40.6z"/><rect class="s3" width="77.9" height="51.4" x="394.8" y="117.6"/><path class="s3" d="m244 211.8a13.2 13.2 0 0 0-13.2 13.2 13.2 13.2 0 0 0 13.2 13.2h66.1a13.2 13.2 0 0 0 13.2-13.2 13.2 13.2 0 0 0-13.2-13.2zm77.8-164v0a13.2 13.2 0 0 0-13.2 13.2 13.2 13.2 0 0 0 13.2 13.2h66.1a13.2 13.2 0 0 0 13.2-13.2 13.2 13.2 0 0 0-13.2-13.2z"/><circle class="s4" r="6.2" cy="75.1" cx="60.3"/><circle class="s5" cx="178.1" cy="75.9" r="6.2"/><circle class="s5" cx="119" cy="52" r="6.2"/><circle class="s5" cx="144.4" cy="61.2" r="6.2"/><circle class="s5" cx="94.1" cy="60.2" r="6.2"/><circle class="s5" cx="256.5" cy="270.1" r="6.2"/><circle class="s5" cx="299.7" cy="269.3" r="6.2"/><circle class="s4" cx="476.4" cy="66.2" r="6.2"/><circle class="s5" cx="433.8" cy="58.4" r="6.2"/><circle class="s5" cx="329.1" cy="19.6" r="6.2"/><circle class="s5" cx="384.9" cy="19.2" r="6.2"/><rect y="144.1" x="158" height="1.3" width="52.9" fill="#000"/><rect width="52.9" height="1.3" x="341.9" y="144.1" fill="#000"/><rect transform="rotate(90)" y="-277.1" x="185.3" height="1.3" width="26.5" fill="#000"/><rect transform="rotate(90)" width="59.5" height="1.3" x="58.1" y="-119.6" fill="#000"/><rect transform="rotate(75)" width="52.9" height="1.3" x="88.6" y="-75.8" fill="#000"/><rect transform="rotate(45)" width="52.9" height="1.3" x="102.2" y="10.4" fill="#000"/><rect transform="rotate(105)" width="52.9" height="1.3" x="27.8" y="-155.4" fill="#000"/><rect transform="rotate(135)" width="52.9" height="1.3" x="-65.7" y="-180.2" fill="#000"/><g aria-label="Victims" class="s7"><path d="m103 138.1-3.7 10.3H97.5L93.8 138.1h1.5l3.2 9 3.2-9zM105.9 139.4h-1.5v-1.3h1.5zm-0.1 9h-1.3v-7.7h1.3zM114.1 147.9q-0.6 0.3-1.2 0.5-0.6 0.2-1.2 0.2-0.8 0-1.5-0.2-0.7-0.2-1.2-0.7-0.5-0.5-0.8-1.3-0.3-0.8-0.3-1.8 0-1.9 1-3 1-1.1 2.7-1.1 0.7 0 1.3 0.2 0.6 0.2 1.2 0.5v1.4h-0.1q-0.6-0.5-1.2-0.7-0.6-0.2-1.2-0.2-1.1 0-1.7 0.7-0.6 0.7-0.6 2.2 0 1.4 0.6 2.1 0.6 0.7 1.8 0.7 0.4 0 0.8-0.1 0.4-0.1 0.7-0.3 0.3-0.1 0.5-0.3 0.2-0.2 0.4-0.3h0.1zM119.7 148.3q-0.4 0.1-0.8 0.2-0.4 0.1-0.8 0.1-1.2 0-1.8-0.6-0.6-0.6-0.6-2v-4.1h-0.9v-1.1h0.9v-2.2h1.3v2.2h2.7v1.1h-2.7v3.5q0 0.6 0 1 0 0.3 0.2 0.6 0.2 0.3 0.4 0.4 0.3 0.1 0.8 0.1 0.3 0 0.7-0.1 0.3-0.1 0.5-0.2h0.1zM122.7 139.4h-1.5v-1.3h1.5zm-0.1 9h-1.3v-7.7h1.3zM136.4 148.4h-1.3v-4.4q0-0.5 0-1 0-0.5-0.2-0.7-0.2-0.3-0.5-0.4-0.3-0.2-0.9-0.2-0.5 0-1.1 0.3-0.5 0.3-1.1 0.7 0 0.2 0 0.4 0 0.2 0 0.4v4.9h-1.3v-4.4q0-0.5 0-1 0-0.5-0.2-0.7-0.2-0.3-0.5-0.4-0.3-0.2-0.9-0.2-0.5 0-1.1 0.3-0.5 0.3-1.1 0.7v5.7h-1.3v-7.7h1.3v0.9q0.6-0.5 1.2-0.8 0.6-0.3 1.3-0.3 0.8 0 1.3 0.3 0.6 0.3 0.8 0.9 0.8-0.7 1.4-1 0.6-0.3 1.4-0.3 1.3 0 1.9 0.8 0.6 0.8 0.6 2.1zM144.4 146.1q0 1.1-0.9 1.7-0.9 0.7-2.4 0.7-0.9 0-1.6-0.2-0.7-0.2-1.2-0.4v-1.5h0.1q0.6 0.5 1.4 0.7 0.8 0.3 1.4 0.3 0.9 0 1.3-0.3 0.5-0.3 0.5-0.9 0-0.5-0.3-0.7-0.3-0.2-1-0.4-0.3-0.1-0.7-0.1-0.4-0.1-0.8-0.2-1-0.3-1.4-0.8-0.4-0.5-0.4-1.3 0-0.5 0.2-0.9 0.2-0.4 0.6-0.8 0.4-0.3 1-0.5 0.6-0.2 1.3-0.2 0.7 0 1.4 0.2 0.7 0.2 1.2 0.4v1.4h-0.1q-0.5-0.4-1.2-0.6-0.7-0.3-1.4-0.3-0.7 0-1.2 0.3-0.5 0.3-0.5 0.8 0 0.5 0.3 0.7 0.3 0.2 0.9 0.4 0.4 0.1 0.8 0.2 0.4 0.1 0.7 0.2 0.9 0.2 1.4 0.7 0.5 0.5 0.5 1.3z" class="s8"/></g><g aria-label="Personalization" class="s7"><path d="m231.1 142.8q0 0.7-0.2 1.3-0.2 0.6-0.7 1-0.5 0.5-1.3 0.8-0.7 0.3-1.8 0.3h-1.4v3.8h-1.4v-10.3h2.8q0.9 0 1.6 0.2 0.6 0.2 1.1 0.5 0.6 0.4 0.9 1 0.3 0.6 0.3 1.5zm-1.4 0q0-0.5-0.2-0.9-0.2-0.4-0.6-0.6-0.3-0.2-0.8-0.3-0.4-0.1-1.1-0.1h-1.3v4.1h1.1q0.8 0 1.3-0.1 0.5-0.2 0.8-0.5 0.3-0.3 0.5-0.7 0.1-0.4 0.1-0.8zM238.9 146.2h-5.7q0 0.7 0.2 1.2 0.2 0.5 0.6 0.9 0.4 0.3 0.8 0.5 0.5 0.2 1.1 0.2 0.8 0 1.6-0.3 0.8-0.3 1.1-0.6h0.1v1.4q-0.7 0.3-1.3 0.5-0.7 0.2-1.4 0.2-1.9 0-3-1-1.1-1-1.1-2.9 0-1.9 1-3 1-1.1 2.7-1.1 1.6 0 2.4 0.9 0.8 0.9 0.8 2.6zm-1.3-1q0-1-0.5-1.6-0.5-0.6-1.5-0.6-1 0-1.7 0.6-0.6 0.6-0.7 1.5zM245.6 143.7h-0.1q-0.3-0.1-0.6-0.1-0.3 0-0.6 0-0.6 0-1.2 0.3-0.6 0.3-1.1 0.7v5.5h-1.3v-7.7h1.3v1.1q0.8-0.6 1.4-0.9 0.6-0.3 1.2-0.3 0.3 0 0.5 0 0.2 0 0.5 0.1zM252.3 147.7q0 1.1-0.9 1.7-0.9 0.7-2.4 0.7-0.9 0-1.6-0.2-0.7-0.2-1.2-0.4v-1.5h0.1q0.6 0.5 1.4 0.7 0.8 0.3 1.4 0.3 0.9 0 1.3-0.3 0.5-0.3 0.5-0.9 0-0.5-0.3-0.7-0.3-0.2-1-0.4-0.3-0.1-0.7-0.1-0.4-0.1-0.8-0.2-1-0.3-1.4-0.8-0.4-0.5-0.4-1.3 0-0.5 0.2-0.9 0.2-0.4 0.6-0.8 0.4-0.3 1-0.5 0.6-0.2 1.3-0.2 0.7 0 1.4 0.2 0.7 0.2 1.2 0.4v1.4h-0.1q-0.5-0.4-1.2-0.6-0.7-0.3-1.4-0.3-0.7 0-1.2 0.3-0.5 0.3-0.5 0.8 0 0.5 0.3 0.7 0.3 0.2 0.9 0.4 0.4 0.1 0.8 0.2 0.4 0.1 0.7 0.2 0.9 0.2 1.4 0.7 0.5 0.5 0.5 1.3zM260.8 146.1q0 1.9-1 3-1 1.1-2.6 1.1-1.6 0-2.6-1.1-1-1.1-1-3 0-1.9 1-3 1-1.1 2.6-1.1 1.6 0 2.6 1.1 1 1.1 1 3zm-1.3 0q0-1.5-0.6-2.2-0.6-0.7-1.6-0.7-1.1 0-1.6 0.7-0.6 0.7-0.6 2.2 0 1.4 0.6 2.2 0.6 0.7 1.6 0.7 1 0 1.6-0.7 0.6-0.7 0.6-2.2zM269.2 150h-1.3v-4.4q0-0.5-0.1-1-0.1-0.5-0.2-0.7-0.2-0.3-0.5-0.4-0.3-0.1-0.8-0.1-0.5 0-1.1 0.3-0.6 0.3-1.1 0.7v5.7h-1.3v-7.7h1.3v0.9q0.6-0.5 1.3-0.8 0.6-0.3 1.3-0.3 1.2 0 1.9 0.8 0.7 0.8 0.7 2.2zM277.7 150h-1.3v-0.8q-0.2 0.1-0.5 0.3-0.3 0.2-0.6 0.3-0.3 0.2-0.7 0.3-0.4 0.1-1 0.1-1 0-1.8-0.7-0.7-0.7-0.7-1.8 0-0.9 0.4-1.4 0.4-0.5 1.1-0.9 0.7-0.3 1.7-0.4 1-0.1 2.1-0.2v-0.2q0-0.4-0.2-0.7-0.2-0.3-0.4-0.5-0.3-0.2-0.7-0.2-0.4-0.1-0.8-0.1-0.5 0-1.1 0.1-0.6 0.1-1.3 0.4h-0.1v-1.3q0.4-0.1 1.1-0.2 0.7-0.1 1.4-0.1 0.8 0 1.4 0.1 0.6 0.1 1 0.5 0.4 0.3 0.7 0.8 0.2 0.5 0.2 1.2zm-1.3-1.9v-2.1q-0.6 0-1.4 0.1-0.8 0.1-1.3 0.2-0.6 0.2-0.9 0.5-0.3 0.3-0.3 0.9 0 0.7 0.4 1 0.4 0.3 1.2 0.3 0.7 0 1.2-0.3 0.6-0.3 1-0.6zM281.5 150h-1.3v-10.7h1.3zM285.5 141h-1.5v-1.3h1.5zm-0.1 9h-1.3v-7.7h1.3zM293.5 150h-6.2v-1l4.5-5.7h-4.4v-1.1h6v0.9l-4.5 5.7h4.6zM301.3 150h-1.3v-0.8q-0.2 0.1-0.5 0.3-0.3 0.2-0.6 0.3-0.3 0.2-0.7 0.3-0.4 0.1-1 0.1-1 0-1.8-0.7-0.7-0.7-0.7-1.8 0-0.9 0.4-1.4 0.4-0.5 1.1-0.9 0.7-0.3 1.7-0.4 1-0.1 2.1-0.2v-0.2q0-0.4-0.2-0.7-0.2-0.3-0.4-0.5-0.3-0.2-0.7-0.2-0.4-0.1-0.8-0.1-0.5 0-1.1 0.1-0.6 0.1-1.3 0.4h-0.1v-1.3q0.4-0.1 1.1-0.2 0.7-0.1 1.4-0.1 0.8 0 1.4 0.1 0.6 0.1 1 0.5 0.4 0.3 0.7 0.8 0.2 0.5 0.2 1.2zm-1.3-1.9v-2.1q-0.6 0-1.4 0.1-0.8 0.1-1.3 0.2-0.6 0.2-0.9 0.5-0.3 0.3-0.3 0.9 0 0.7 0.4 1 0.4 0.3 1.2 0.3 0.7 0 1.2-0.3 0.6-0.3 1-0.6zM307.8 149.9q-0.4 0.1-0.8 0.2-0.4 0.1-0.8 0.1-1.2 0-1.8-0.6-0.6-0.6-0.6-2v-4.1h-0.9v-1.1h0.9v-2.2h1.3v2.2h2.7v1.1h-2.7v3.5q0 0.6 0 1 0 0.3 0.2 0.6 0.2 0.3 0.4 0.4 0.3 0.1 0.8 0.1 0.3 0 0.7-0.1 0.3-0.1 0.5-0.2h0.1zM310.8 141h-1.5v-1.3h1.5zm-0.1 9h-1.3v-7.7h1.3zM319.8 146.1q0 1.9-1 3-1 1.1-2.6 1.1-1.6 0-2.6-1.1-1-1.1-1-3 0-1.9 1-3 1-1.1 2.6-1.1 1.6 0 2.6 1.1 1 1.1 1 3zm-1.3 0q0-1.5-0.6-2.2-0.6-0.7-1.6-0.7-1.1 0-1.6 0.7-0.6 0.7-0.6 2.2 0 1.4 0.6 2.2 0.6 0.7 1.6 0.7 1 0 1.6-0.7 0.6-0.7 0.6-2.2zM328.3 150h-1.3v-4.4q0-0.5-0.1-1-0.1-0.5-0.2-0.7-0.2-0.3-0.5-0.4-0.3-0.1-0.8-0.1-0.5 0-1.1 0.3-0.6 0.3-1.1 0.7v5.7h-1.3v-7.7h1.3v0.9q0.6-0.5 1.3-0.8 0.6-0.3 1.3-0.3 1.2 0 1.9 0.8 0.7 0.8 0.7 2.2z" class="s8"/></g><g aria-label="Message" class="s7"><path d="m413.5 147h-1.4v-8.8l-2.9 6h-0.8l-2.8-6v8.8h-1.3v-10.3h1.9l2.7 5.7 2.6-5.7h1.9zM422.6 143.2h-5.7q0 0.7 0.2 1.2 0.2 0.5 0.6 0.9 0.4 0.3 0.8 0.5 0.5 0.2 1.1 0.2 0.8 0 1.6-0.3 0.8-0.3 1.1-0.6h0.1v1.4q-0.7 0.3-1.3 0.5-0.7 0.2-1.4 0.2-1.9 0-3-1-1.1-1-1.1-2.9 0-1.9 1-3 1-1.1 2.7-1.1 1.6 0 2.4 0.9 0.8 0.9 0.8 2.6zm-1.3-1q0-1-0.5-1.6-0.5-0.6-1.5-0.6-1 0-1.7 0.6-0.6 0.6-0.7 1.5zM430 144.7q0 1.1-0.9 1.7-0.9 0.7-2.4 0.7-0.9 0-1.6-0.2-0.7-0.2-1.2-0.4v-1.5h0.1q0.6 0.5 1.4 0.7 0.8 0.3 1.4 0.3 0.9 0 1.3-0.3 0.5-0.3 0.5-0.9 0-0.5-0.3-0.7-0.3-0.2-1-0.4-0.3-0.1-0.7-0.1-0.4-0.1-0.8-0.2-1-0.3-1.4-0.8-0.4-0.5-0.4-1.3 0-0.5 0.2-0.9 0.2-0.4 0.6-0.8 0.4-0.3 1-0.5 0.6-0.2 1.3-0.2 0.7 0 1.4 0.2 0.7 0.2 1.2 0.4v1.4h-0.1q-0.5-0.4-1.2-0.6-0.7-0.3-1.4-0.3-0.7 0-1.2 0.3-0.5 0.3-0.5 0.8 0 0.5 0.3 0.7 0.3 0.2 0.9 0.4 0.4 0.1 0.8 0.2 0.4 0.1 0.7 0.2 0.9 0.2 1.4 0.7 0.5 0.5 0.5 1.3zM437.4 144.7q0 1.1-0.9 1.7-0.9 0.7-2.4 0.7-0.9 0-1.6-0.2-0.7-0.2-1.2-0.4v-1.5h0.1q0.6 0.5 1.4 0.7 0.8 0.3 1.4 0.3 0.9 0 1.3-0.3 0.5-0.3 0.5-0.9 0-0.5-0.3-0.7-0.3-0.2-1-0.4-0.3-0.1-0.7-0.1-0.4-0.1-0.8-0.2-1-0.3-1.4-0.8-0.4-0.5-0.4-1.3 0-0.5 0.2-0.9 0.2-0.4 0.6-0.8 0.4-0.3 1-0.5 0.6-0.2 1.3-0.2 0.7 0 1.4 0.2 0.7 0.2 1.2 0.4v1.4h-0.1q-0.5-0.4-1.2-0.6-0.7-0.3-1.4-0.3-0.7 0-1.2 0.3-0.5 0.3-0.5 0.8 0 0.5 0.3 0.7 0.3 0.2 0.9 0.4 0.4 0.1 0.8 0.2 0.4 0.1 0.7 0.2 0.9 0.2 1.4 0.7 0.5 0.5 0.5 1.3zM445.2 147h-1.3v-0.8q-0.2 0.1-0.5 0.3-0.3 0.2-0.6 0.3-0.3 0.2-0.7 0.3-0.4 0.1-1 0.1-1 0-1.8-0.7-0.7-0.7-0.7-1.8 0-0.9 0.4-1.4 0.4-0.5 1.1-0.9 0.7-0.3 1.7-0.4 1-0.1 2.1-0.2v-0.2q0-0.4-0.2-0.7-0.2-0.3-0.4-0.5-0.3-0.2-0.7-0.2-0.4-0.1-0.8-0.1-0.5 0-1.1 0.1-0.6 0.1-1.3 0.4h-0.1v-1.3q0.4-0.1 1.1-0.2 0.7-0.1 1.4-0.1 0.8 0 1.4 0.1 0.6 0.1 1 0.5 0.4 0.3 0.7 0.8 0.2 0.5 0.2 1.2zm-1.3-1.9v-2.1q-0.6 0-1.4 0.1-0.8 0.1-1.3 0.2-0.6 0.2-0.9 0.5-0.3 0.3-0.3 0.9 0 0.7 0.4 1 0.4 0.3 1.2 0.3 0.7 0 1.2-0.3 0.6-0.3 1-0.6zM454 146.1q0 2-0.9 2.9-0.9 0.9-2.7 0.9-0.6 0-1.2-0.1-0.6-0.1-1.1-0.2v-1.3h0.1q0.3 0.1 1 0.3 0.7 0.2 1.4 0.2 0.7 0 1.1-0.2 0.4-0.2 0.7-0.4 0.2-0.3 0.3-0.6 0.1-0.4 0.1-0.8v-0.7q-0.6 0.5-1.1 0.7-0.5 0.2-1.4 0.2-1.4 0-2.2-1-0.8-1-0.8-2.8 0-1 0.3-1.7 0.3-0.7 0.8-1.2 0.4-0.5 1.1-0.8 0.6-0.3 1.3-0.3 0.7 0 1.1 0.1 0.5 0.1 1 0.4l0.1-0.3h1.2zm-1.3-1.2v-4.2q-0.5-0.2-1-0.3-0.4-0.1-0.9-0.1-1.1 0-1.7 0.7-0.6 0.7-0.6 2.1 0 1.3 0.5 2 0.5 0.7 1.5 0.7 0.6 0 1.1-0.2 0.6-0.2 1-0.6zM463 143.2h-5.7q0 0.7 0.2 1.2 0.2 0.5 0.6 0.9 0.4 0.3 0.8 0.5 0.5 0.2 1.1 0.2 0.8 0 1.6-0.3 0.8-0.3 1.1-0.6h0.1v1.4q-0.7 0.3-1.3 0.5-0.7 0.2-1.4 0.2-1.9 0-3-1-1.1-1-1.1-2.9 0-1.9 1-3 1-1.1 2.7-1.1 1.6 0 2.4 0.9 0.8 0.9 0.8 2.6zm-1.3-1q0-1-0.5-1.6-0.5-0.6-1.5-0.6-1 0-1.7 0.6-0.6 0.6-0.7 1.5z" class="s8"/></g><g aria-label="Media" class="s7"><path d="m266.7 230.3h-1.4v-8.8l-2.9 6h-0.8l-2.8-6v8.8h-1.3v-10.3h1.9l2.7 5.7 2.6-5.7h1.9zM275.8 226.5h-5.7q0 0.7 0.2 1.2 0.2 0.5 0.6 0.9 0.4 0.3 0.8 0.5 0.5 0.2 1.1 0.2 0.8 0 1.6-0.3 0.8-0.3 1.1-0.6h0.1v1.4q-0.7 0.3-1.3 0.5-0.7 0.2-1.4 0.2-1.9 0-3-1-1.1-1-1.1-2.9 0-1.9 1-3 1-1.1 2.7-1.1 1.6 0 2.4 0.9 0.8 0.9 0.8 2.6zm-1.3-1q0-1-0.5-1.6-0.5-0.6-1.5-0.6-1 0-1.7 0.6-0.6 0.6-0.7 1.5zM284 230.3h-1.3v-0.8q-0.6 0.5-1.2 0.8-0.6 0.3-1.3 0.3-1.4 0-2.2-1.1-0.8-1.1-0.8-2.9 0-1 0.3-1.7 0.3-0.8 0.8-1.3 0.5-0.5 1.1-0.8 0.6-0.3 1.3-0.3 0.6 0 1.1 0.1 0.5 0.1 1 0.4v-3.3h1.3zm-1.3-1.9v-4.4q-0.5-0.2-0.9-0.3-0.4-0.1-0.9-0.1-1.1 0-1.7 0.8-0.6 0.8-0.6 2.1 0 1.4 0.5 2.1 0.5 0.7 1.5 0.7 0.6 0 1.1-0.2 0.6-0.2 1.1-0.6zM287.9 221.3h-1.5v-1.3h1.5zm-0.1 9h-1.3v-7.7h1.3zM296.4 230.3h-1.3v-0.8q-0.2 0.1-0.5 0.3-0.3 0.2-0.6 0.3-0.3 0.2-0.7 0.3-0.4 0.1-1 0.1-1 0-1.8-0.7-0.7-0.7-0.7-1.8 0-0.9 0.4-1.4 0.4-0.5 1.1-0.9 0.7-0.3 1.7-0.4 1-0.1 2.1-0.2v-0.2q0-0.4-0.2-0.7-0.2-0.3-0.4-0.5-0.3-0.2-0.7-0.2-0.4-0.1-0.8-0.1-0.5 0-1.1 0.1-0.6 0.1-1.3 0.4h-0.1v-1.3q0.4-0.1 1.1-0.2 0.7-0.1 1.4-0.1 0.8 0 1.4 0.1 0.6 0.1 1 0.5 0.4 0.3 0.7 0.8 0.2 0.5 0.2 1.2zm-1.3-1.9v-2.1q-0.6 0-1.4 0.1-0.8 0.1-1.3 0.2-0.6 0.2-0.9 0.5-0.3 0.3-0.3 0.9 0 0.7 0.4 1 0.4 0.3 1.2 0.3 0.7 0 1.2-0.3 0.6-0.3 1-0.6z" class="s8"/></g><g aria-label="Media" class="s7"><path d="m344.5 66.3h-1.4v-8.8l-2.9 6h-0.8l-2.8-6v8.8h-1.3V56h1.9l2.7 5.7 2.6-5.7h1.9zM353.6 62.5h-5.7q0 0.7 0.2 1.2 0.2 0.5 0.6 0.9 0.4 0.3 0.8 0.5 0.5 0.2 1.1 0.2 0.8 0 1.6-0.3 0.8-0.3 1.1-0.6h0.1v1.4q-0.7 0.3-1.3 0.5-0.7 0.2-1.4 0.2-1.9 0-3-1-1.1-1-1.1-2.9 0-1.9 1-3 1-1.1 2.7-1.1 1.6 0 2.4 0.9 0.8 0.9 0.8 2.6zm-1.3-1q0-1-0.5-1.6-0.5-0.6-1.5-0.6-1 0-1.7 0.6-0.6 0.6-0.7 1.5zM361.8 66.3h-1.3v-0.8q-0.6 0.5-1.2 0.8-0.6 0.3-1.3 0.3-1.4 0-2.2-1.1-0.8-1.1-0.8-2.9 0-1 0.3-1.7 0.3-0.8 0.8-1.3 0.5-0.5 1.1-0.8 0.6-0.3 1.3-0.3 0.6 0 1.1 0.1 0.5 0.1 1 0.4v-3.3h1.3zm-1.3-1.9v-4.4q-0.5-0.2-0.9-0.3-0.4-0.1-0.9-0.1-1.1 0-1.7 0.8-0.6 0.8-0.6 2.1 0 1.4 0.5 2.1 0.5 0.7 1.5 0.7 0.6 0 1.1-0.2 0.6-0.2 1.1-0.6zM365.7 57.3h-1.5V55.9h1.5zm-0.1 9h-1.3V58.6h1.3zM374.2 66.3h-1.3v-0.8q-0.2 0.1-0.5 0.3-0.3 0.2-0.6 0.3-0.3 0.2-0.7 0.3-0.4 0.1-1 0.1-1 0-1.8-0.7-0.7-0.7-0.7-1.8 0-0.9 0.4-1.4 0.4-0.5 1.1-0.9 0.7-0.3 1.7-0.4 1-0.1 2.1-0.2v-0.2q0-0.4-0.2-0.7-0.2-0.3-0.4-0.5-0.3-0.2-0.7-0.2-0.4-0.1-0.8-0.1-0.5 0-1.1 0.1-0.6 0.1-1.3 0.4h-0.1v-1.3q0.4-0.1 1.1-0.2 0.7-0.1 1.4-0.1 0.8 0 1.4 0.1 0.6 0.1 1 0.5 0.4 0.3 0.7 0.8 0.2 0.5 0.2 1.2zm-1.3-1.9v-2.1q-0.6 0-1.4 0.1-0.8 0.1-1.3 0.2-0.6 0.2-0.9 0.5-0.3 0.3-0.3 0.9 0 0.7 0.4 1 0.4 0.3 1.2 0.3 0.7 0 1.2-0.3 0.6-0.3 1-0.6z" class="s8"/></g><rect transform="rotate(90)" width="52.9" height="1.3" x="64.7" y="-434.3" fill="#000"/><rect transform="rotate(60)" width="52.9" height="1.3" x="260.3" y="-308.4" fill="#000"/><rect transform="rotate(120)" width="52.9" height="1.3" x="-174.5" y="-446.2" fill="#000"/><rect transform="rotate(60)" width="26.5" height="1.3" x="187.5" y="-275.2" fill="#000"/><rect transform="rotate(120)" width="26.5" height="1.3" x="-169.5" y="-343.5" fill="#000"/><rect transform="rotate(75)" width="26.5" height="1.3" x="305.3" y="-220.1" fill="#000"/><rect transform="rotate(105)" width="26.5" height="1.3" x="161.6" y="-317.8" fill="#000"/><g aria-label="(1,1)" class="s0"><path d="m165.5 141.1h-1.2q-0.9-1.1-1.4-2.3-0.5-1.2-0.5-2.8 0-1.6 0.5-2.8 0.5-1.2 1.4-2.3h1.2v0.1q-0.4 0.4-0.8 0.9-0.4 0.5-0.7 1.1-0.3 0.6-0.5 1.4-0.2 0.8-0.2 1.6 0 0.9 0.2 1.6 0.2 0.7 0.5 1.4 0.3 0.6 0.7 1.1 0.4 0.5 0.8 0.9zM171.9 139h-4.2v-0.8h1.6v-5.2h-1.6v-0.7q0.3 0 0.7-0.1 0.4-0.1 0.6-0.2 0.2-0.1 0.4-0.3 0.1-0.2 0.2-0.5h0.8v6.9h1.6zM176 137.5l-1.5 3.4h-0.8l0.9-3.4zM182.5 139h-4.2v-0.8h1.6v-5.2h-1.6v-0.7q0.3 0 0.7-0.1 0.4-0.1 0.6-0.2 0.2-0.1 0.4-0.3 0.1-0.2 0.2-0.5h0.8v6.9h1.6zM187.5 136q0 1.6-0.5 2.8-0.5 1.2-1.4 2.3h-1.2v-0.1q0.4-0.4 0.8-0.9 0.4-0.5 0.7-1.1 0.3-0.7 0.5-1.4 0.2-0.7 0.2-1.6 0-0.8-0.2-1.6-0.2-0.8-0.5-1.4-0.3-0.7-0.7-1.1-0.4-0.5-0.8-0.9v-0.1h1.2q0.9 1.1 1.4 2.3 0.5 1.2 0.5 2.8z" class="s9"/></g><g aria-label="(0,N)" class="s0"><path d="m369.2 141.4h-1.2q-0.9-1.1-1.4-2.3-0.5-1.2-0.5-2.8 0-1.6 0.5-2.8 0.5-1.2 1.4-2.3h1.2v0.1q-0.4 0.4-0.8 0.9-0.4 0.5-0.7 1.1-0.3 0.6-0.5 1.4-0.2 0.8-0.2 1.6 0 0.9 0.2 1.6 0.2 0.7 0.5 1.4 0.3 0.6 0.7 1.1 0.4 0.5 0.8 0.9zM376 135.4q0 2.1-0.7 3-0.6 1-2 1-1.4 0-2-1-0.6-1-0.6-3 0-2.1 0.6-3 0.6-1 2-1 1.4 0 2 1 0.6 1 0.6 3zm-1.4 2.3q0.2-0.4 0.2-1 0.1-0.6 0.1-1.4 0-0.8-0.1-1.4-0.1-0.6-0.2-1-0.2-0.4-0.5-0.6-0.3-0.2-0.8-0.2-0.5 0-0.8 0.2-0.3 0.2-0.5 0.6-0.2 0.4-0.2 1-0.1 0.6-0.1 1.4 0 0.8 0.1 1.4 0.1 0.5 0.2 1 0.2 0.4 0.5 0.6 0.3 0.2 0.8 0.2 0.5 0 0.8-0.2 0.3-0.2 0.5-0.6zM379.7 137.8l-1.5 3.4h-0.8l0.9-3.4zM387.5 139.3h-1.3l-3.7-6.9v6.9h-1v-7.7h1.6l3.3 6.3v-6.3h1zM392.4 136.3q0 1.6-0.5 2.8-0.5 1.2-1.4 2.3h-1.2v-0.1q0.4-0.4 0.8-0.9 0.4-0.5 0.7-1.1 0.3-0.7 0.5-1.4 0.2-0.7 0.2-1.6 0-0.8-0.2-1.6-0.2-0.8-0.5-1.4-0.3-0.7-0.7-1.1-0.4-0.5-0.8-0.9v-0.1h1.2q0.9 1.1 1.4 2.3 0.5 1.2 0.5 2.8z" class="s9"/></g><g aria-label="(0,N)" class="s0"><path d="m283.6 206.6h-1.2q-0.9-1.1-1.4-2.3-0.5-1.2-0.5-2.8 0-1.6 0.5-2.8 0.5-1.2 1.4-2.3h1.2v0.1q-0.4 0.4-0.8 0.9-0.4 0.5-0.7 1.1-0.3 0.6-0.5 1.4-0.2 0.8-0.2 1.6 0 0.9 0.2 1.6 0.2 0.7 0.5 1.4 0.3 0.6 0.7 1.1 0.4 0.5 0.8 0.9zM290.4 200.6q0 2.1-0.7 3-0.6 1-2 1-1.4 0-2-1-0.6-1-0.6-3 0-2.1 0.6-3 0.6-1 2-1 1.4 0 2 1 0.6 1 0.6 3zm-1.4 2.3q0.2-0.4 0.2-1 0.1-0.6 0.1-1.4 0-0.8-0.1-1.4-0.1-0.6-0.2-1-0.2-0.4-0.5-0.6-0.3-0.2-0.8-0.2-0.5 0-0.8 0.2-0.3 0.2-0.5 0.6-0.2 0.4-0.2 1-0.1 0.6-0.1 1.4 0 0.8 0.1 1.4 0.1 0.5 0.2 1 0.2 0.4 0.5 0.6 0.3 0.2 0.8 0.2 0.5 0 0.8-0.2 0.3-0.2 0.5-0.6zM294.1 203l-1.5 3.4h-0.8l0.9-3.4zM301.9 204.5h-1.3l-3.7-6.9v6.9h-1v-7.7h1.6l3.3 6.3v-6.3h1zM306.8 201.5q0 1.6-0.5 2.8-0.5 1.2-1.4 2.3h-1.2v-0.1q0.4-0.4 0.8-0.9 0.4-0.5 0.7-1.1 0.3-0.7 0.5-1.4 0.2-0.7 0.2-1.6 0-0.8-0.2-1.6-0.2-0.8-0.5-1.4-0.3-0.7-0.7-1.1-0.4-0.5-0.8-0.9v-0.1h1.2q0.9 1.1 1.4 2.3 0.5 1.2 0.5 2.8z" class="s9"/></g><g aria-label="(0,N)" class="s0"><path d="m379.5 94.9h-1.2q-0.9-1.1-1.4-2.3-0.5-1.2-0.5-2.8 0-1.6 0.5-2.8 0.5-1.2 1.4-2.3h1.2v0.1q-0.4 0.4-0.8 0.9-0.4 0.5-0.7 1.1-0.3 0.6-0.5 1.4-0.2 0.8-0.2 1.6 0 0.9 0.2 1.6 0.2 0.7 0.5 1.4 0.3 0.6 0.7 1.1 0.4 0.5 0.8 0.9zM386.3 88.9q0 2.1-0.7 3-0.6 1-2 1-1.4 0-2-1-0.6-1-0.6-3 0-2.1 0.6-3 0.6-1 2-1 1.4 0 2 1 0.6 1 0.6 3zm-1.4 2.3q0.2-0.4 0.2-1 0.1-0.6 0.1-1.4 0-0.8-0.1-1.4-0.1-0.6-0.2-1-0.2-0.4-0.5-0.6-0.3-0.2-0.8-0.2-0.5 0-0.8 0.2-0.3 0.2-0.5 0.6-0.2 0.4-0.2 1-0.1 0.6-0.1 1.4 0 0.8 0.1 1.4 0.1 0.5 0.2 1 0.2 0.4 0.5 0.6 0.3 0.2 0.8 0.2 0.5 0 0.8-0.2 0.3-0.2 0.5-0.6zM390 91.3l-1.5 3.4h-0.8l0.9-3.4zM397.8 92.8h-1.3l-3.7-6.9v6.9h-1v-7.7h1.6l3.3 6.3v-6.3h1zM402.7 89.8q0 1.6-0.5 2.8-0.5 1.2-1.4 2.3h-1.2v-0.1q0.4-0.4 0.8-0.9 0.4-0.5 0.7-1.1 0.3-0.7 0.5-1.4 0.2-0.7 0.2-1.6 0-0.8-0.2-1.6-0.2-0.8-0.5-1.4-0.3-0.7-0.7-1.1-0.4-0.5-0.8-0.9v-0.1h1.2q0.9 1.1 1.4 2.3 0.5 1.2 0.5 2.8z" class="s9"/></g></svg>